<?xml version="1.0" encoding="UTF-8" standalone="no"?><!-- Generator: Gravit.io --><svg xmlns="http://www.w3.org/2000/svg" xmlns:xlink="http://www.w3.org/1999/xlink" style="isolation:isolate" viewBox="0 0 700 700"><defs><clipPath id="_clipPath_n7MinsPwhmHAi9gSgZcEwpsYqojItgmM"><rect width="700" height="700"/></clipPath></defs><g clip-path="url(#_clipPath_n7MinsPwhmHAi9gSgZcEwpsYqojItgmM)"><circle vector-effect="non-scaling-stroke" cx="204.85878924382985" cy="349.99999999999744" r="18.266549914749874" fill="rgb(93,47,117)"/><linearGradient id="_lgradient_0" x1="0.13575647213690223" y1="0.8533864818024266" x2="0.8470400147667874" y2="0.14210293917254113" gradientTransform="matrix(158.344,0,0,305.768,353.831,197.116)" gradientUnits="userSpaceOnUse"><stop offset="0%" stop-opacity="1" style="stop-color:rgb(98,48,121)"/><stop offset="67.84%" stop-opacity="1" style="stop-color:rgb(139,68,172)"/></linearGradient><path d=" M 512.175 350 L 353.831 197.116 L 353.831 273.558 L 430.273 350 L 353.831 426.442 L 353.831 502.884 L 512.175 350 L 512.175 350 Z " fill="url(#_lgradient_0)"/><linearGradient id="_lgradient_1" x1="0.13575647213690223" y1="0.8533864818024266" x2="0.8470400147667874" y2="0.14210293917254113" gradientTransform="matrix(54.601,0,0,109.203,288.309,295.399)" gradientUnits="userSpaceOnUse"><stop offset="0%" stop-opacity="1" style="stop-color:rgb(98,48,121)"/><stop offset="67.84%" stop-opacity="1" style="stop-color:rgb(139,68,172)"/></linearGradient><path d=" M 288.309 350 L 342.911 295.399 L 342.911 404.601 L 288.309 350 L 288.309 350 Z " fill="url(#_lgradient_1)"/><linearGradient id="_lgradient_2" x1="0.13575647213690223" y1="0.8533864818024266" x2="0.8470400147667874" y2="0.14210293917254113" gradientTransform="matrix(42.498,0,0,82.863,474,353.8)" gradientUnits="userSpaceOnUse"><stop offset="0%" stop-opacity="1" style="stop-color:rgb(98,48,121)"/><stop offset="67.84%" stop-opacity="1" style="stop-color:rgb(139,68,172)"/></linearGradient><path d=" M 474 395.232 L 516.498 353.8 L 516.498 436.663 L 474 395.232 L 474 395.232 Z " fill="url(#_lgradient_2)"/><linearGradient id="_lgradient_3" x1="0.13575647213690223" y1="0.8533864818024266" x2="0.8470400147667874" y2="0.14210293917254113" gradientTransform="matrix(127.63,0,0,305.768,215.281,197.116)" gradientUnits="userSpaceOnUse"><stop offset="0%" stop-opacity="1" style="stop-color:rgb(98,48,121)"/><stop offset="67.84%" stop-opacity="1" style="stop-color:rgb(139,68,172)"/></linearGradient><path d=" M 215.281 324.746 L 342.911 197.116 L 342.911 273.558 L 266.469 350 L 342.911 426.442 L 342.911 502.884 L 215.281 375.254 C 224.006 370.218 229.884 360.79 229.884 350 C 229.884 339.21 224.006 329.782 215.281 324.746 Z " fill-rule="evenodd" fill="url(#_lgradient_3)"/></g></svg>