<?xml version="1.0" encoding="UTF-8" standalone="no"?><!-- Generator: Gravit.io --><svg xmlns="http://www.w3.org/2000/svg" xmlns:xlink="http://www.w3.org/1999/xlink" style="isolation:isolate" viewBox="0 0 350 330" ><defs><clipPath id="_clipPath_KwNHIV3k4QAYFsUZQKOlyEnsG1GJhKdf"><rect width="350" height="330"/></clipPath></defs><g clip-path="url(#_clipPath_KwNHIV3k4QAYFsUZQKOlyEnsG1GJhKdf)"><circle vector-effect="non-scaling-stroke" cx="28.31348114074039" cy="164.9999999999975" r="18.266549914749884" fill="rgb(93,47,117)"/><linearGradient id="_lgradient_0" x1="0.13575647213690223" y1="0.8533864818024266" x2="0.8470400147667874" y2="0.14210293917254113" gradientTransform="matrix(158.344,0,0,305.768,177.286,12.116)" gradientUnits="userSpaceOnUse"><stop offset="0%" stop-opacity="1" style="stop-color:rgb(98,48,121)"/><stop offset="67.84%" stop-opacity="1" style="stop-color:rgb(139,68,172)"/></linearGradient><path d=" M 335.63 165 L 177.286 12.116 L 177.286 88.558 L 253.728 165 L 177.286 241.442 L 177.286 317.884 L 335.63 165 L 335.63 165 Z " fill="url(#_lgradient_0)"/><linearGradient id="_lgradient_1" x1="0.13575647213690223" y1="0.8533864818024266" x2="0.8470400147667874" y2="0.14210293917254113" gradientTransform="matrix(54.601,0,0,109.203,111.764,110.399)" gradientUnits="userSpaceOnUse"><stop offset="0%" stop-opacity="1" style="stop-color:rgb(98,48,121)"/><stop offset="67.84%" stop-opacity="1" style="stop-color:rgb(139,68,172)"/></linearGradient><path d=" M 111.764 165 L 166.366 110.399 L 166.366 219.601 L 111.764 165 L 111.764 165 Z " fill="url(#_lgradient_1)"/><linearGradient id="_lgradient_2" x1="0.13575647213690223" y1="0.8533864818024266" x2="0.8470400147667874" y2="0.14210293917254113" gradientTransform="matrix(42.498,0,0,82.863,297.455,168.8)" gradientUnits="userSpaceOnUse"><stop offset="0%" stop-opacity="1" style="stop-color:rgb(98,48,121)"/><stop offset="67.84%" stop-opacity="1" style="stop-color:rgb(139,68,172)"/></linearGradient><path d=" M 297.455 210.232 L 339.953 168.8 L 339.953 251.663 L 297.455 210.232 L 297.455 210.232 Z " fill="url(#_lgradient_2)"/><linearGradient id="_lgradient_3" x1="0.13575647213690223" y1="0.8533864818024266" x2="0.8470400147667874" y2="0.14210293917254113" gradientTransform="matrix(127.63,0,0,305.768,38.736,12.116)" gradientUnits="userSpaceOnUse"><stop offset="0%" stop-opacity="1" style="stop-color:rgb(98,48,121)"/><stop offset="67.84%" stop-opacity="1" style="stop-color:rgb(139,68,172)"/></linearGradient><path d=" M 38.736 139.746 L 166.366 12.116 L 166.366 88.558 L 89.924 165 L 166.366 241.442 L 166.366 317.884 L 38.736 190.254 C 47.461 185.218 53.339 175.79 53.339 165 C 53.339 154.21 47.461 144.782 38.736 139.746 Z " fill-rule="evenodd" fill="url(#_lgradient_3)"/></g></svg>